<svg width="3840" height="2160" xmlns="http://www.w3.org/2000/svg"><path fill="#fff" d="M0 0h3840v2160H0z"/><path d="M0 1210l91.5-76.2C183 1057.7 366 905.3 548.8 925.2c182.9 19.8 365.5 211.8 548.4 309.5 182.8 97.6 365.8 101 548.6 13 182.9-88 365.5-267.4 548.4-243C2377 1029 2560 1257 2742.8 1240.2c182.9-16.9 365.5-278.5 548.4-382.4C3474 754 3657 808 3748.5 835l91.5 27v1299H0z" fill="#18e1fd"/><path d="M0 845l91.5 100.2c91.5 100.1 274.5 300.5 457.3 410.1 182.9 109.7 365.5 128.7 548.4 142.2 182.8 13.5 365.8 21.5 548.6-58 182.9-79.5 365.5-246.5 548.4-357.8 182.8-111.4 365.8-167 548.6-189 182.9-22 365.5-10.4 548.4 4.3 182.8 14.7 365.8 32.3 457.3 41.2l91.5 8.8v1214H0z" fill="#00c8ff"/><path d="M0 1183l91.5 11.3c91.5 11.4 274.5 34 457.3 92.9 182.9 58.8 365.5 153.8 548.4 139.5 182.8-14.4 365.8-138 548.6-128.7 182.9 9.3 365.5 151.7 548.4 241.7 182.8 90 365.8 127.6 548.6 51.5 182.9-76.2 365.5-266.2 548.4-349.9 182.8-83.6 365.8-61 457.3-49.6l91.5 11.3v958H0z" fill="#00adff"/><path d="M0 1810l91.5-30.3c91.5-30.4 274.5-91 457.3-113.4 182.9-22.3 365.5-6.3 548.4-18.5 182.8-12.1 365.8-52.5 548.6-73 182.9-20.5 365.5-21.1 548.4-5.5 182.8 15.7 365.8 47.7 548.6 26.2 182.9-21.5 365.5-96.5 548.4-121.2 182.8-24.6 365.8 1 457.3 13.9l91.5 12.8v660H0z" fill="#008dff"/><path d="M0 1654l91.5 40.3c91.5 40.4 274.5 121 457.3 137.9 182.9 16.8 365.5-30.2 548.4-58.9 182.8-28.6 365.8-39 548.6-61.5 182.9-22.5 365.5-57.1 548.4-43.6 182.8 13.5 365.8 75.1 548.6 111.3 182.9 36.2 365.5 46.8 548.4 56.3 182.8 9.5 365.8 17.9 457.3 22l91.5 4.2v299H0z" fill="#06f"/></svg>