<svg width="3840" height="2160" xmlns="http://www.w3.org/2000/svg"><path fill="#fff" d="M0 0h3840v2160H0z"/><path d="M0 189l91.5 15.2c91.5 15.1 274.5 45.5 457.3 41.5 182.9-4 365.5-42.4 548.4-61.9 182.8-19.5 365.8-20.1 548.6-2.5 182.9 17.7 365.5 53.7 548.4 48.9 182.8-4.9 365.8-50.5 548.6-47.2 182.9 3.3 365.5 55.7 548.4 76.3 182.8 20.7 365.8 9.7 457.3 4.2l91.5-5.5V0H0z" fill="#18e1fd"/><path d="M0 262l91.5-20c91.5-20 274.5-60 457.3-82 182.9-22 365.5-26 548.4-28.8 182.8-2.9 365.8-4.5 548.6 11.5 182.9 16 365.5 49.6 548.4 72C2377 237 2560 248 2742.8 252.3c182.9 4.4 365.5 2 548.4-1 182.8-3 365.8-6.6 457.3-8.5l91.5-1.8V0H0z" fill="#00c8ff"/><path d="M0 194l91.5-2.2c91.5-2.1 274.5-6.5 457.3-18.1 182.9-11.7 365.5-30.7 548.4-27.9 182.8 2.9 365.8 27.5 548.6 25.5 182.9-2 365.5-30.6 548.4-48.6 182.8-18 365.8-25.4 548.6-10 182.9 15.3 365.5 53.3 548.4 70 182.8 16.6 365.8 12 457.3 9.6l91.5-2.3V0H0z" fill="#00adff"/><path d="M0 69l91.5 6C183 81 366 93 548.8 97.5c182.9 4.5 365.5 1.5 548.4 4C1280 104 1463 112 1645.8 116c182.9 4 365.5 4 548.4.8 182.8-3.1 365.8-9.5 548.6-5.1 182.9 4.3 365.5 19.3 548.4 24.3 182.8 5 365.8 0 457.3-2.5l91.5-2.5V0H0z" fill="#008dff"/><path d="M0 100l91.5-8C183 84 366 68 548.8 64.7c182.9-3.4 365.5 6 548.4 11.6C1280 82 1463 84 1645.8 88.5c182.9 4.5 365.5 11.5 548.4 8.8 182.8-2.6 365.8-15 548.6-22.3 182.9-7.3 365.5-9.7 548.4-11.7 182.8-2 365.8-3.6 457.3-4.5l91.5-.8V0H0z" fill="#06f"/></svg>