<svg xmlns="http://www.w3.org/2000/svg" data-name="Layer 1" width="955.953" height="639.224"><path fill="#e6e6e6" d="M.3.399h703.576V451H.3z"/><path fill="#fff" d="M20.419 56.915h663.339v171.773H20.419z"/><path fill="#e6e6e6" d="M185.418 81.727h140.281v8.053H185.418z"/><path fill="#6c63ff" d="M185.418 111.101h216.625v8.053H185.418z"/><path fill="#e6e6e6" d="M185.418 138.776h176.544v8.053H185.418zM185.418 166.346h103.064v8.053H185.418zM185.418 193.916h155.55v8.053h-155.55zM121.481 78.864h17.177v17.177h-17.177z"/><path fill="#6c63ff" d="M121.481 106.539h17.177v17.177h-17.177z"/><path fill="#e6e6e6" d="M121.481 134.213h17.177v17.177h-17.177zM121.481 161.888h17.177v17.177h-17.177zM121.481 189.562h17.177v17.177h-17.177zM533.736 117.99h57.258v57.258h-57.258z"/><path fill="#fff" d="M20.419 252.546h663.339v171.773H20.419z"/><path fill="#e6e6e6" d="M151.064 267.812h17.177v17.177h-17.177z"/><path fill="#6c63ff" d="M121.481 267.812h17.177v17.177h-17.177z"/><path d="M412.724 305.375a65.046 65.046 0 00-105.003-9.7l-4.186-3.657a70.594 70.594 0 01113.973 10.526z" fill="#e6e6e6"/><path d="M415.344 377.794l-4.614-3.102a65.078 65.078 0 001.994-69.317l4.784-2.831a70.637 70.637 0 01-2.164 75.25zM304.114 385.539a70.59 70.59 0 01-.58-93.521l4.187 3.657a65.03 65.03 0 00.534 86.155z" fill="#6c63ff"/><path d="M356.714 409.052a70.709 70.709 0 01-52.6-23.513l4.14-3.71a65.043 65.043 0 00102.476-7.137l4.614 3.102a70.554 70.554 0 01-58.63 31.258z" fill="#6c63ff"/><path fill="#e6e6e6" d="M533.736 305.032h57.258v57.258h-57.258zM119.095 342.249h57.258v57.258h-57.258z"/><path fill="#6c63ff" d="M0 0h703.576v29.89H0z"/><circle cx="22.212" cy="15.282" r="5.54" fill="#fff"/><circle cx="43.241" cy="15.282" r="5.54" fill="#fff"/><circle cx="64.269" cy="15.282" r="5.54" fill="#fff"/><path fill="#ffb8b8" d="M817.168 623.704h14.243l6.777-54.94-21.023.001.003 54.939z"/><path d="M813.535 619.054l28.05-.001h.002a17.877 17.877 0 0117.876 17.876v.58l-45.928.002z" fill="#2f2e41"/><path fill="#ffb8b8" d="M781.694 569.766l10.511 9.613 42.079-35.968-15.513-14.187-37.077 40.542z"/><path d="M782.152 563.883l20.7 18.93a17.877 17.877 0 011.127 25.256l-.392.429-33.892-30.995zM839.555 430.772l-4.037 80.739 10.093 87.805-30.278 4.037-19.175-111.017-6.056-75.694 49.453 14.13z" fill="#2f2e41"/><path d="M886.99 401.504s12.11 79.73-13.12 105.97-59.546 72.666-59.546 72.666l-24.222-30.277 61.564-65.601-12.11-44.407-49.454-23.213 8.074-55.508 72.666-1.01z" fill="#2f2e41"/><circle cx="831.415" cy="192.095" r="24.717" fill="#ffb8b8"/><path fill="#ccc" d="M851.917 227.224l3.786 5.736 10.093 28.259-8.074 110.007-47.435 1.01-6.055-126.156 12.685-15.856 35-3z"/><path d="M785.056 249.108l-8.074-1.01s-2.018 1.01-3.028 8.075-13.12 69.637-13.12 69.637l16.148 76.703 18.166-24.222-11.101-42.388 11.102-42.388zM887.999 248.099h6.055l15.139 81.748-14.129 63.583-14.13-23.213 4.037-25.231-2.018-22.203-7.065-13.121 12.111-61.563zM846.021 192.095l-4.494-1.124s-3.37-19.1-11.235-16.853-28.088 4.494-28.088-4.494 19.1-16.853 30.335-15.73 25.584 4.852 29.212 21.348c5.814 26.444-11.997 33.123-11.997 33.123l.296-.963a14.996 14.996 0 00-4.029-15.307z" fill="#2f2e41"/><path d="M777.991 248.099l32.296-13.12 7.57-5.551 22.708 100.42 15.138-45.417-4.541-58.031 41.883 21.699-14.13 68.628-2.018 26.24 6.056 21.195s21.194 15.138 14.13 31.286-15.14 17.157-15.14 17.157-34.314-32.295-36.332-40.37-5.046-22.203-5.046-22.203-17.158 64.592-37.342 63.583-20.185-22.204-20.185-22.204l5.046-22.203 8.074-23.213-4.037-38.351z" fill="#2f2e41"/><path d="M954.953 639.224h-268a1 1 0 010-2h268a1 1 0 010 2z" fill="#ccc"/></svg>