<svg xmlns="http://www.w3.org/2000/svg" data-name="Layer 1" width="732.643" height="638.921"><path d="M121.518 222.42a33.503 33.503 0 01-5.159.12 1.125 1.125 0 00-1.238.977l-3.291 24.685a10.021 10.021 0 01-2.123 4.89 10.658 10.658 0 00-2.4 8.147v41.932s-.212 5.591 4.084 5.591a62.103 62.103 0 0015.485 0s3.44-.651 3.44-5.81v-41.289a10.1 10.1 0 00-2.124-8.21 10.276 10.276 0 01-2.06-4.861l-3.418-25.202a1.125 1.125 0 00-1.196-.97z" fill="#fff"/><path d="M119.118 309.953a62.674 62.674 0 01-7.773-.484 4.18 4.18 0 01-3.099-1.268c-1.748-1.816-1.65-4.925-1.646-5.057v-41.862a11.404 11.404 0 012.563-8.643 9.308 9.308 0 001.966-4.535l3.29-24.68a1.843 1.843 0 012.017-1.587 32.657 32.657 0 005.012-.12l.02-.003a1.833 1.833 0 011.948 1.58l3.418 25.203a9.578 9.578 0 001.917 4.522 10.78 10.78 0 012.272 8.707v41.225c0 5.68-3.975 6.499-4.016 6.506a63.144 63.144 0 01-7.889.496zm-2.855-86.709a.424.424 0 00-.44.362l-3.292 24.69a10.736 10.736 0 01-2.274 5.241 9.991 9.991 0 00-2.247 7.614l.005.087v41.933c-.001.052-.076 2.674 1.254 4.052a2.791 2.791 0 002.122.831l.088.006a61.466 61.466 0 0015.309 0c.067-.017 2.82-.645 2.82-5.109l.011-41.415a9.376 9.376 0 00-1.974-7.634 11.013 11.013 0 01-2.213-5.211l-3.419-25.206a.42.42 0 00-.436-.36 34.363 34.363 0 01-5.256.122.556.556 0 00-.058-.003z" fill="#3f3d56"/><path d="M116.324 261.989h5.216a7.82 7.82 0 017.82 7.82v19.625a7.82 7.82 0 01-7.82 7.82h-5.216a7.82 7.82 0 01-7.82-7.82V269.81a7.82 7.82 0 017.82-7.82z" fill="#6c63ff"/><path fill="#9f616a" d="M20.432 622.437h17.005l8.09-65.591-25.098.001.003 65.59z"/><path d="M16.095 616.885l33.489-.001a21.343 21.343 0 0121.343 21.342v.693l-54.831.002zM9.741 388.163s-7.37 8.33 4.834 40.805l-2.15 178.063 39.548-.772 8.693-86.858 15.827-126.75z" fill="#2f2e41"/><path d="M90.056 412.78l-.433-.065C39.031 404.999.854 397.602.474 397.528L0 397.436l13.262-32.257c-.105-3.37-2.975-98.023 2.52-125.218 5.32-26.326 30.398-30.64 33.256-31.046l2.869-9.507 36.251 18.863 6.323 21.76 1.284 59.639z" fill="#3f3d56"/><path d="M111.89 290.031a11.83 11.83 0 00-8.69 3.8H42.265l-22.319 4.752 3.665 28.264 79.396-17.075a11.87 11.87 0 108.882-19.741z" fill="#9f616a"/><circle cx="320.33" cy="305.177" r="29.366" transform="rotate(-61.337 93.425 436.934)" fill="#9f616a"/><path d="M59.032 151.16l-1.424-2.865 7.163-3.559s7.903-12.858 22.203-9.245 20.733 5.776 20.733 5.776l7.146 3.596-3.586 3.568 6.433 2.162-4.298 2.136 5 2.874-2.691 14.736s-4.472-11.177-13.068-6.906-24.32-2.207-24.32-2.207l-13.66 26.437s-2.818-9.268-7.843-6.797c0 0-12.836-20.443 2.212-29.705z" fill="#2f2e41"/><path d="M24.002 332.145l-6.969-20.727-1.685-69.094 2.969-9.803a27.389 27.389 0 1151.728 17.896l-15.914 40.78.809 1.57 34.477-.28 12.246 22.044z" fill="#3f3d56"/><path d="M368.948 323.628a10.611 10.611 0 001.696-16.182l16.994-33.663-19.465 2.258-13.154 31.62a10.669 10.669 0 0013.93 15.967zM505.24 562.075l-15.316-.001-7.286-59.075 22.604.002-.002 59.074z" fill="#ffb7b7"/><path d="M509.146 576.92l-49.384-.001v-.625a19.223 19.223 0 0119.221-19.221h.002l30.162.001z" fill="#2f2e41"/><path fill="#ffb7b7" d="M421.54 562.075l-15.316-.001-7.286-59.075 22.605.002-.003 59.074z"/><path d="M421.698 576.92l-49.384-.001v-.625a19.223 19.223 0 0119.222-19.221h.001l30.162.001zM420.285 312.572l-14.991 34.536-12.366 198.506 31.231-1.249 8.53-94.629 26.313-84.282 15.127 93.961 6.247 82.451 25.842 1.119 10.298-230.413h-96.231z" fill="#2f2e41"/><path d="M495.22 142.155l-43.448 1.086-25.51 13.096-1.4 96.614-15.909 66.703s99.404 6.842 113.146-3.152l-16.24-76.205 21.781-82.355z" fill="#6c63ff"/><path d="M432.972 157.938l-4.045-2.732s-16.757 5.023-21.71 27.367c0 0-3.79 11.21-5.452 18.917-1.908 8.84-44.027 90.042-44.027 90.042l25.217 7.234L429.187 224z" fill="#6c63ff"/><path d="M526.96 336.017a10.611 10.611 0 012.833-16.023l-7.053-37.043 18.088 7.538 3.924 34.021a10.669 10.669 0 01-17.792 11.507z" fill="#ffb7b7"/><path d="M521.103 159.096l4.64-1.51s14.723 9.448 13.322 32.292c0 0 .552 11.82.025 19.687-.604 9.024 7.496 98.691 7.496 98.691h-26.234l-11.244-81.201z" fill="#6c63ff"/><path d="M505.886 101.62a30.12 30.12 0 11-30.12-30.119 30.044 30.044 0 0130.12 29.97v.15z" fill="#ffb7b7"/><path d="M445.747 61.165c3.529-7.587 10.357-6.087 16.328-3.515 7.562-1.678 14.754-6.7 22.902-3.73 8.026 11.674 34.972 8.24 29.24 27.243-.008 4.554 8.568 1.903 7.071 9.361 4.543 14.353-16.399 41.535-28.421 35.811 2.973-5.45 9.765-17.826-.536-19.054-22.16 20.62-2.287-39.264-30.131-21.849-9.22 8.437-21.841-15.828-16.453-24.267z" fill="#2f2e41"/><path d="M532.232 339.02a10.01 10.01 0 0011.98-9.594l75.627-71.182-17.016-13.574-69.117 74.418a10.064 10.064 0 00-1.474 19.932z" fill="#9f616a"/><path d="M609.123 269.75l-14.713-17.243a4.488 4.488 0 011.032-6.717l19.155-11.99a12.464 12.464 0 0116.125 19.01l-14.803 16.977a4.488 4.488 0 01-6.796-.037z" fill="#cbcbcb"/><path fill="#9f616a" d="M569.558 620.997l-18.491-.001-8.797-71.321 27.291.001-.003 71.321z"/><path d="M574.273 638.921l-59.622-.002v-.754a23.208 23.208 0 0123.207-23.206h.001l36.415.001z" fill="#2f2e41"/><path fill="#9f616a" d="M717.365 620.997l-18.49-.001-8.797-71.321 27.291.001-.004 71.321z"/><path d="M722.081 638.921l-59.622-.002v-.754a23.208 23.208 0 0123.207-23.206h.001l36.415.001zM667.628 307.557l18.638-68.863-24.18-13.592h-33.75l-13.128 14.045s-21.932 15.26-16.623 32.166l8.564 38.509-13.098 61.161-65.99 91.515-15.622 89.893 61.492 16.12 66.495-130.93 32.24 144.975 59.977-3.017-20.668-175.782s-5.891-53.55-36.773-86.985z" fill="#2f2e41"/><path d="M706.12 368.486a10.01 10.01 0 00-1.282-15.295l-14.462-97.564-20.757 6.555 20.778 93.964a10.064 10.064 0 0015.723 12.34z" fill="#9f616a"/><path d="M693.95 270.94l-22.518 2.596a4.488 4.488 0 01-5-4.603l.73-22.587a12.464 12.464 0 0124.772-2.783l5.837 21.756a4.488 4.488 0 01-3.82 5.62z" fill="#cbcbcb"/><path d="M607.468 205.519v-29.015a38.88 38.88 0 1177.76 0v29.015a5.229 5.229 0 01-5.223 5.223H612.69a5.229 5.229 0 01-5.222-5.223z" fill="#2f2e41"/><circle cx="872.037" cy="312.1" r="28.505" transform="rotate(-28.663 499.723 704.155)" fill="#9f616a"/><path d="M598.27 178.825a30.79 30.79 0 0130.755-30.755h5.804a30.79 30.79 0 0130.755 30.755v.58H653.32l-4.182-11.712-.837 11.713h-6.338l-2.11-5.91-.422 5.91H598.27z" fill="#2f2e41"/><path d="M635.553 214.004a5.145 5.145 0 01-.41-5.463c6.15-11.696 14.76-33.309 3.332-46.638l-.822-.957h33.179v49.812l-30.14 5.318a5.335 5.335 0 01-.924.082 5.202 5.202 0 01-4.215-2.154z" fill="#2f2e41"/><path d="M330.6 240.529a11.478 11.478 0 00-1.155 1.39l-54.059-1.322-6.307-11.524-18.636 7.245 9.182 21.486a8.723 8.723 0 009.068 5.232l61.077-7.378a11.446 11.446 0 10.83-15.129zM154.374 568.836h17.775l8.456-68.561-26.234.001.003 68.56z" fill="#ffb7b7"/><path d="M149.84 563.033l35.006-.001h.001a22.31 22.31 0 0122.308 22.308v.724l-57.314.003z" fill="#2f2e41"/><path fill="#ffb7b7" d="M315.778 568.441l16.346-6.983-19.157-66.372-24.124 10.307 26.935 63.048z"/><path d="M309.328 564.885l32.191-13.752h.002a22.31 22.31 0 0129.278 11.75l.285.667-52.706 22.517z" fill="#2f2e41"/><path fill="#ffb7b7" d="M240.773 255.381l1.285 20.829-37.571 4.021-39.314 4.207 11.571-31.628 64.029 2.571z"/><path d="M242.093 262.855c-.426-.167-42.863-16.675-68.93-3.177l-.64.332-5.2-25.596-2.964-55.03 19.281-9.11 5.309-11.891 36.16-2.14 7.43 10.19 25.299 8.292-15.12 88.377z" fill="#e4e4e4"/><path d="M243.422 213.183l4.472-35.142 10.184-3.1.172.064c.235.086 5.77 2.204 7.285 9.867 1.454 7.355 12.406 53.123 12.517 53.584l.11.458-25.734 10.296z" fill="#e4e4e4"/><path d="M302.539 556.391l34.255-7.026-54.75-151.072-18.737-51.529s-11.884-41.315-17.254-57.303l-3.24-21.453-76.707 8.49s-21.424 31.464-14.916 82.747L148.246 552l34.255 1.756 28.692-194.402 50.357 106.57s15.873 45.477 27.229 55.334z" fill="#2f2e41"/><path d="M196.867 283.653a11.478 11.478 0 00-1.805.1l-35.785-40.542 4.163-12.46-17.983-8.74-9.513 21.342a8.723 8.723 0 002.328 10.207l46.937 39.77a11.446 11.446 0 1011.658-9.677z" fill="#ffb7b7"/><path d="M142.217 228.017l13.99-39.848c1.572-4.698 3.542-7.552 5.856-8.483a3.613 3.613 0 012.903-.027l6.273 7.925 5.822 24.459-14.927 35.114z" fill="#e4e4e4"/><path d="M234.817 147.997h-61.416a4.77 4.77 0 01-4.765-4.765v-26.473a35.473 35.473 0 0170.946 0v26.473a4.77 4.77 0 01-4.765 4.765z" fill="#2f2e41"/><circle cx="211.399" cy="121.373" r="26.008" fill="#ffb7b7"/><path d="M247.974 119.407H210.42l-.385-5.392-1.926 5.392h-5.782l-.763-10.687-3.817 10.687h-11.189v-.53a28.092 28.092 0 0128.06-28.06h5.296a28.092 28.092 0 0128.06 28.06z" fill="#2f2e41"/><path d="M210.113 152.938a4.867 4.867 0 01-.844-.074l-27.499-4.852v-45.448h30.271l-.75.874c-10.426 12.16-2.57 31.88 3.04 42.551a4.694 4.694 0 01-.373 4.985 4.746 4.746 0 01-3.845 1.964z" fill="#2f2e41"/><path d="M539.518 262.18a33.504 33.504 0 01-5.159.12 1.125 1.125 0 00-1.238.978l-3.291 24.685a10.021 10.021 0 01-2.123 4.89 10.658 10.658 0 00-2.4 8.146v41.932s-.212 5.591 4.084 5.591a62.103 62.103 0 0015.485 0s3.44-.65 3.44-5.81v-41.288a10.1 10.1 0 00-2.124-8.21 10.276 10.276 0 01-2.06-4.862l-3.418-25.202a1.125 1.125 0 00-1.196-.97z" fill="#fff"/><path d="M537.118 349.713a62.674 62.674 0 01-7.773-.483 4.18 4.18 0 01-3.099-1.269c-1.748-1.815-1.65-4.925-1.646-5.057v-41.862a11.404 11.404 0 012.563-8.642 9.308 9.308 0 001.966-4.536l3.29-24.68a1.843 1.843 0 012.017-1.587 32.658 32.658 0 005.012-.12l.02-.002a1.833 1.833 0 011.948 1.579l3.418 25.203a9.578 9.578 0 001.917 4.523 10.78 10.78 0 012.272 8.707v41.225c0 5.68-3.975 6.498-4.016 6.506a63.142 63.142 0 01-7.889.495zm-2.855-86.708a.424.424 0 00-.44.362l-3.292 24.69a10.736 10.736 0 01-2.274 5.24 9.991 9.991 0 00-2.247 7.615l.005.087v41.932c-.001.052-.076 2.675 1.254 4.052a2.791 2.791 0 002.122.832l.088.005a61.465 61.465 0 0015.309 0c.067-.016 2.82-.644 2.82-5.108l.011-41.415a9.376 9.376 0 00-1.974-7.634 11.013 11.013 0 01-2.213-5.212l-3.419-25.206a.42.42 0 00-.436-.359 34.364 34.364 0 01-5.256.122.556.556 0 00-.058-.003z" fill="#3f3d56"/><path d="M534.324 301.75h5.216a7.82 7.82 0 017.82 7.82v19.625a7.82 7.82 0 01-7.82 7.82h-5.216a7.82 7.82 0 01-7.82-7.82V309.57a7.82 7.82 0 017.82-7.82z" fill="#6c63ff"/><path d="M362.518 228.18a33.504 33.504 0 01-5.159.12 1.125 1.125 0 00-1.238.978l-3.291 24.685a10.021 10.021 0 01-2.123 4.89 10.658 10.658 0 00-2.4 8.146v41.932s-.212 5.591 4.084 5.591a62.103 62.103 0 0015.485 0s3.44-.65 3.44-5.81v-41.288a10.1 10.1 0 00-2.124-8.21 10.276 10.276 0 01-2.06-4.862l-3.418-25.202a1.125 1.125 0 00-1.196-.97z" fill="#fff"/><path d="M360.118 315.713a62.674 62.674 0 01-7.773-.483 4.18 4.18 0 01-3.099-1.269c-1.748-1.815-1.65-4.925-1.646-5.057v-41.862a11.404 11.404 0 012.563-8.642 9.308 9.308 0 001.966-4.536l3.29-24.68a1.843 1.843 0 012.017-1.587 32.658 32.658 0 005.012-.12l.02-.002a1.833 1.833 0 011.948 1.579l3.418 25.203a9.578 9.578 0 001.917 4.523 10.78 10.78 0 012.272 8.707v41.225c0 5.68-3.975 6.498-4.016 6.506a63.142 63.142 0 01-7.889.495zm-2.855-86.708a.424.424 0 00-.44.362l-3.292 24.69a10.736 10.736 0 01-2.274 5.24 9.991 9.991 0 00-2.247 7.615l.005.087v41.932c-.001.052-.076 2.675 1.254 4.052a2.791 2.791 0 002.122.832l.088.005a61.465 61.465 0 0015.309 0c.067-.016 2.82-.644 2.82-5.108l.011-41.415a9.376 9.376 0 00-1.974-7.634 11.013 11.013 0 01-2.213-5.212l-3.419-25.206a.42.42 0 00-.436-.359 34.364 34.364 0 01-5.256.122.556.556 0 00-.058-.003z" fill="#3f3d56"/><path d="M357.324 267.75h5.216a7.82 7.82 0 017.82 7.82v19.625a7.82 7.82 0 01-7.82 7.82h-5.216a7.82 7.82 0 01-7.82-7.82V275.57a7.82 7.82 0 017.82-7.82z" fill="#6c63ff"/><path d="M332.518 192.18a33.504 33.504 0 01-5.159.12 1.125 1.125 0 00-1.238.978l-3.291 24.685a10.021 10.021 0 01-2.123 4.89 10.658 10.658 0 00-2.4 8.146v41.932s-.212 5.591 4.084 5.591a62.103 62.103 0 0015.485 0s3.44-.65 3.44-5.81v-41.288a10.1 10.1 0 00-2.124-8.21 10.276 10.276 0 01-2.06-4.862l-3.418-25.202a1.125 1.125 0 00-1.196-.97z" fill="#fff"/><path d="M330.118 279.713a62.674 62.674 0 01-7.773-.483 4.18 4.18 0 01-3.099-1.269c-1.748-1.815-1.65-4.925-1.646-5.057v-41.862a11.404 11.404 0 012.563-8.642 9.308 9.308 0 001.966-4.536l3.29-24.68a1.843 1.843 0 012.017-1.587 32.658 32.658 0 005.012-.12l.02-.002a1.833 1.833 0 011.948 1.579l3.418 25.203a9.578 9.578 0 001.917 4.523 10.78 10.78 0 012.272 8.707v41.225c0 5.68-3.975 6.498-4.016 6.506a63.142 63.142 0 01-7.889.495zm-2.855-86.708a.424.424 0 00-.44.362l-3.292 24.69a10.736 10.736 0 01-2.274 5.24 9.991 9.991 0 00-2.247 7.615l.005.087v41.932c-.001.052-.076 2.675 1.254 4.052a2.791 2.791 0 002.122.832l.088.005a61.465 61.465 0 0015.309 0c.067-.016 2.82-.644 2.82-5.108l.011-41.415a9.376 9.376 0 00-1.974-7.634 11.013 11.013 0 01-2.213-5.212l-3.419-25.206a.42.42 0 00-.436-.359 34.364 34.364 0 01-5.256.122.556.556 0 00-.058-.003z" fill="#3f3d56"/><path d="M327.324 231.75h5.216a7.82 7.82 0 017.82 7.82v19.625a7.82 7.82 0 01-7.82 7.82h-5.216a7.82 7.82 0 01-7.82-7.82V239.57a7.82 7.82 0 017.82-7.82z" fill="#6c63ff"/><circle cx="56.187" cy="46" r="25" fill="#f0f0f0"/><circle cx="632.187" cy="25" r="25" fill="#f0f0f0"/><circle cx="346.187" cy="95" r="18" fill="#f0f0f0"/></svg>